<?xml version="1.0" encoding="utf-8"?>
<!-- Generator: Adobe Illustrator 26.3.1, SVG Export Plug-In . SVG Version: 6.00 Build 0)  -->
<svg version="1.1" id="Camada_1" xmlns="http://www.w3.org/2000/svg" xmlns:xlink="http://www.w3.org/1999/xlink" x="0px" y="0px"
	 viewBox="0 0 762.6 653.3" style="enable-background:new 0 0 762.6 653.3;" xml:space="preserve">
<style type="text/css">
	.st0{fill:#22A650;}
	.st1{fill:#B0263D;}
	.st2{fill:#662C8C;}
	.st3{fill:#4A216C;}
	.st4{fill:#FF9B2B;}
	.st5{fill:#F5BB9A;}
	.st6{fill:#A5ECDA;}
	.st7{fill:#84E6CE;}
	.st8{fill:#5DDFC2;}
	.st9{fill:#A4CB3C;}
	.st10{fill:#60B5FF;}
	.st11{fill:#26A4FC;}
	.st12{fill:#D6EAFC;}
	.st13{fill:#CBE0FF;}
	.st14{fill:#F5F39D;}
	.st15{fill:#F2D26E;}
	.st16{fill:#8B9AA6;}
	.st17{fill:#7A8A96;}
	.st18{fill:#B1D8FC;}
	.st19{fill:#88C7FC;}
</style>
<g>
	<path class="st0" d="M683.1,323.1c36.6,84.3-142.5,263.2-317.3,317.3c-26.4,8.2-40.4,9.7-52.5,9.6
		C187.8,649.8,44.2,486.7,48.5,323.1C53.8,120.8,283.8-32.1,365.8,5.8C423.3,32.4,381,140.7,468.3,226
		C554.6,310.5,657.7,264.8,683.1,323.1z"/>
	<circle class="st0" cx="7" cy="101.2" r="7"/>
	<circle class="st0" cx="56" cy="534.8" r="21.5"/>
	<path class="st1" d="M745.6,223.6l-12.4-9.5c-1.8-1.4-2.1-3.9-0.7-5.6L742,196c1.4-1.8,3.9-2.1,5.6-0.7l12.4,9.5
		c1.8,1.4,2.1,3.9,0.7,5.6l-9.5,12.4C749.9,224.6,747.4,224.9,745.6,223.6z"/>
	<path class="st1" d="M112.6,576.2l-5.7-4.4c-3.3-2.5-3.9-7.2-1.4-10.4l4.4-5.7c2.5-3.3,7.2-3.9,10.4-1.4l5.7,4.4
		c3.3,2.5,3.9,7.2,1.4,10.4l-4.4,5.7C120.5,578.1,115.9,578.7,112.6,576.2z"/>
	<path class="st1" d="M684.6,484.4L684.6,484.4c-7.9,2.6-16.4-1.6-19-9.5v0c-2.6-7.9,1.6-16.4,9.5-19l0,0c7.9-2.6,16.4,1.6,19,9.5v0
		C696.7,473.2,692.5,481.7,684.6,484.4z"/>
	<rect x="61.7" y="414" transform="matrix(0.9192 0.3938 -0.3938 0.9192 184.4051 4.2681)" class="st2" width="40.1" height="75"/>
	
		<rect x="149.5" y="412" transform="matrix(0.7071 0.7071 -0.7071 0.7071 361.5552 9.2621)" class="st3" width="40.1" height="58.1"/>
	<path class="st2" d="M166.7,196h-53.2c-39.1,0-70.7,31.7-70.7,70.7v152.4c0,16.6,13.4,30,30,30H191c24.3,0,44-19.7,44-44V264.3
		C235,226.6,204.4,196,166.7,196z"/>
	<path class="st3" d="M193.8,238.9h-50.2c-23.6,0-42.8,19.1-42.8,42.7v99.4c0,7,5.7,12.8,12.8,12.8h96.7c6.8,0,12.2-5.5,12.2-12.2
		V267.7C222.5,251.8,209.7,238.9,193.8,238.9z"/>
	<path class="st4" d="M254.4,238.9H142.6c-23.1,0-41.8,18.7-41.8,41.7v30.2h99c30.1,0,54.6-24.4,54.6-54.6V238.9z"/>
	<path class="st5" d="M193.5,310.8h-92.7v69.7c0,7.3,5.9,13.2,13.2,13.2h79.4V310.8z"/>
	<g>
		<g>
			<g>
				<g id="XMLID_00000064350023174471076660000015232635196092523701_">
					<g>
						<path class="st6" d="M193.4,358.1c5.8,18.5,5.8,35.2,0,50.3c-0.2,0.6-0.7,1-1.2,1.2c-28.1,11.1-56.2,11.1-84.2,0
							c-0.6-0.2-1-0.7-1.2-1.3c-6.1-16.7-6.1-33.5,0-50.3c0.2-0.6,0.7-1.1,1.3-1.3c29.6-10.7,57.7-10.7,84.1,0
							C192.8,357,193.2,357.5,193.4,358.1z"/>
					</g>
				</g>
				<g>
					<path class="st7" d="M165.4,416.9c-19.1,2.8-38.3,0.3-57.4-7.3c-0.6-0.2-1-0.7-1.2-1.3c-6.1-16.7-6.1-33.5,0-50.3
						c0.2-0.6,0.7-1.1,1.3-1.3c4.3-1.6,8.6-2.9,12.9-4c-3.8,11.9-2.3,32.1-0.9,44.2c0.7,6.3,5.2,11.5,11.3,13.3
						C141.3,413.2,156.4,417,165.4,416.9L165.4,416.9z"/>
					<path class="st7" d="M195.3,399.7c-24.9,4.9-50.1,5.7-75.2,2.5v3.6c10,1.3,20,1.9,30,1.9c15,0,30.1-1.5,45-4.3
						c0.4-1.3,0.7-2.6,1-3.9L195.3,399.7z"/>
					<path class="st7" d="M194.9,363.1c-24.6-4.7-50.5-5.3-77.4-1.7v3.6c27-3.6,53-3,77.5,1.8c0,0,0.8,0.1,0.8,0.1
						C195.5,365.7,195.2,364.4,194.9,363.1z"/>
					<path class="st7" d="M163.9,384.7c0,1,0.8,1.8,1.8,1.8h32.1c0-1.2,0-2.4,0-3.6h-32.1C164.7,382.9,163.9,383.7,163.9,384.7
						L163.9,384.7z"/>
					<path class="st7" d="M157.4,382.9h-41.8v3.6h41.8c1,0,1.8-0.8,1.8-1.8S158.4,382.9,157.4,382.9z"/>
				</g>
				<path class="st8" d="M119.1,386.5c-0.1-1.2-0.2-2.4-0.2-3.6h-16.6c0,0,0,0,0,0c0,1.2,0,2.4,0.1,3.6v0H119.1z"/>
			</g>
			<g>
				<path class="st8" d="M121.7,402.4c-5.6-0.7-11.2-1.6-16.7-2.7l-0.9-0.2c0.3,1.3,0.6,2.6,1,3.9c6.5,1.3,13,2.2,19.5,2.9
					C123.5,405.2,122.5,403.9,121.7,402.4L121.7,402.4z"/>
				<path class="st8" d="M119.2,361.2c-4.7,0.6-9.4,1.3-14.1,2.2c-0.4,1.3-0.7,2.6-1,3.9l0.9-0.3c4.6-0.8,9.3-1.6,13.9-2.2
					C119,363.6,119.1,362.4,119.2,361.2z"/>
			</g>
		</g>
	</g>
	<path d="M273.1,362H90.4c-4.1,0-7.5,3.4-7.5,7.5v36.2c0,4.1,3.4,7.5,7.5,7.5h182.8c4.1,0,7.5-3.4,7.5-7.5v-36.2
		C280.6,365.4,277.3,362,273.1,362z"/>
	<rect x="265.4" y="378.6" width="37.3" height="18"/>
	<path d="M242.9,352l-17.8,11.5c-1.2,0.8-1.6,2.5-0.8,3.7l6.8,10.6c0.8,1.2,2.5,1.6,3.7,0.8l17.8-11.5c1.2-0.8,1.6-2.5,0.8-3.7
		l-6.8-10.6C245.8,351.6,244.1,351.2,242.9,352z"/>
	<path class="st5" d="M221.9,378.6h-15.3c-11,0-20,9-20,20v15.3c0,11,9,20,20,20h15.3c11,0,20-9,20-20v-15.3
		C241.9,387.5,233,378.6,221.9,378.6z"/>
	<path class="st3" d="M47.9,366.8l-30.2,27.9c-7.5,6.9-8,18.6-1.1,26.1l9.6,10.4c6.9,7.5,18.6,8,26.1,1.1l30.2-27.9
		c7.5-6.9,8-18.6,1.1-26.1L74,367.9C67.1,360.4,55.4,359.9,47.9,366.8z"/>
	<path d="M82.5,364.1l-45.5,42c-7.5,6.9-8,18.6-1.1,26.1l9.6,10.4c6.9,7.5,18.6,8,26.1,1.1l45.5-42c7.5-6.9,8-18.6,1.1-26.1
		l-9.6-10.4C101.7,357.6,90,357.2,82.5,364.1z"/>
	<path d="M124.9,337H121c-2.8,0-5,2.2-5,5v3.9c0,2.8,2.2,5,5,5h3.8c2.8,0,5-2.2,5-5V342C129.9,339.3,127.6,337,124.9,337z"/>
	<path class="st5" d="M101.4,381.4H55.2v24.9H102c4.7,0,8.5-3.8,8.5-8.5v-7.2C110.5,385.5,106.4,381.4,101.4,381.4z"/>
	<path class="st5" d="M95.3,406.3H55.2v30.4h19.4c11.4,0,20.7-9.3,20.7-20.7V406.3z"/>
	<path class="st2" d="M55.2,381.4H34.3c-10.6,0-19.2,8.6-19.2,19.2l0,17.2c0,10.5,8.5,19,19,19h21.1V381.4z"/>
	<path d="M178.8,326H175c-2.8,0-5,2.2-5,5v14.9c0,2.8,2.2,5,5,5h3.8c2.8,0,5-2.2,5-5V331C183.8,328.3,181.6,326,178.8,326z"/>
	<path class="st9" d="M174.3,373.1h-51.5c-2.2,0-4,1.8-4,4v3.1c0,2.2,1.8,4,4,4h51.5c2.2,0,4-1.8,4-4v-3.1
		C178.3,374.9,176.5,373.1,174.3,373.1z"/>
	<g>
		<g>
			<g>
				<path class="st10" d="M325.3,391.1l-0.1-7.3l16.1-0.1l0.1,7.3L325.3,391.1z"/>
				<path class="st11" d="M341.4,387.3l-16.1,0.1l0-3.7l16.1-0.1L341.4,387.3z"/>
			</g>
			<g>
				<path class="st12" d="M437.9,385.6c0.2,0.2,0.4,0.6,0.4,0.9c0,0.7-0.6,1.3-1.3,1.3l-18.4,0.2c-0.7,0-1.3-0.6-1.3-1.3
					c0-0.7,0.6-1.3,1.3-1.3l18.4-0.2C437.3,385.2,437.7,385.3,437.9,385.6L437.9,385.6z"/>
			</g>
			<path class="st12" d="M349.2,375.9l24-0.2l1.2,3.7l2.4,7.5l-3.4,10.6l-1.3,0.9l-5.1,0l-1.5-0.7l-1.2,0.7l-4.9,0l-1.3-0.6
				l-1.4,0.7l-7.5,0.1L347,388l1.5-8.4L349.2,375.9z"/>
			<path class="st13" d="M349.2,375.9l24-0.2l1.2,3.7l-25.9,0.2L349.2,375.9z"/>
			<path class="st14" d="M373.3,375.7l32.7-0.3l3.8,10.8l-3.6,11.9l-24.2,0.2l-1.4-0.8l-1.3,0.9l-4.4,0l-1.4-0.9L373.3,375.7z"/>
			<path class="st15" d="M373.3,379.3l32.7-0.3l0.8-1.2l-0.9-2.5l-32.7,0.3L373.3,379.3z"/>
			<path class="st16" d="M405.9,375.4l5.2,0c1.3,0,2.4,1,2.8,2.1c0.2,0.5,0.4,1,0.8,1.4l3.3,3.4c1.6,1.7,2.1,4,1.5,6.1
				c-0.3,0.9-0.7,1.8-1.4,2.6l-3.2,3.4c-0.4,0.4-0.7,0.9-0.8,1.4c-0.3,1.3-1.5,2.2-2.7,2.2l-5.2,0l-0.2-19.1L405.9,375.4z"/>
			<path class="st17" d="M405.9,375.4l5.2,0c1.3,0,2.4,1,2.8,2.1c0.2,0.5,0.4,1,0.8,1.4l3.3,3.4c1.6,1.7,2.1,4,1.5,6.1c0,0,0,0,0,0
				c-0.3-0.9-0.8-1.8-1.5-2.5l-3.4-3.5c-0.3-0.3-0.6-0.7-0.7-1.2c-0.3-1.3-1.4-2.3-2.8-2.2l-5.2,0L405.9,375.4z"/>
			<path class="st18" d="M339.8,374.4l0.2,25.8c0,1,0.8,1.7,1.7,1.7l5.9,0c1,0,1.7-0.8,1.7-1.7l-0.2-25.8c0-1-0.8-1.7-1.7-1.7
				l-5.9,0C340.6,372.7,339.8,373.5,339.8,374.4L339.8,374.4z"/>
			<path class="st19" d="M339.8,374.4l0,3.7c0-1,0.8-1.7,1.7-1.7l5.9,0c1,0,1.7,0.8,1.7,1.7l0-3.7c0-1-0.8-1.7-1.7-1.7l-5.9,0
				C340.6,372.7,339.8,373.5,339.8,374.4L339.8,374.4z"/>
			<path class="st18" d="M321,379.2l0.1,16.5c0,1.7,1.4,3.1,3.2,3.1l0.4,0c1.7,0,3.1-1.4,3.1-3.2l-0.1-16.5c0-1.7-1.4-3.1-3.2-3.1
				l-0.4,0C322.4,376.1,321,377.5,321,379.2z"/>
			<g>
				<path class="st19" d="M321,379.2l0,3.7c0-1.7,1.4-3.2,3.1-3.2l0.4,0c1.7,0,3.2,1.4,3.2,3.1l0-3.7c0-1.7-1.4-3.1-3.2-3.1l-0.4,0
					C322.4,376.1,321,377.5,321,379.2z"/>
			</g>
			<g>
				<path class="st18" d="M358.1,389.8c0.4,0,0.7,0.1,1,0.4c0.2,0.2,0.4,0.6,0.4,0.9l0.1,7.3l-2.7,0l-0.1-7.3
					C356.8,390.5,357.4,389.9,358.1,389.8z"/>
			</g>
			<g>
				<path class="st18" d="M365.7,389.8c0.4,0,0.7,0.1,0.9,0.4c0.2,0.2,0.4,0.6,0.4,0.9l0.1,7.3l-2.7,0l-0.1-7.3
					C364.3,390.4,364.9,389.8,365.7,389.8L365.7,389.8z"/>
			</g>
			<g>
				<path class="st18" d="M380.5,389.7c0.4,0,0.7,0.1,0.9,0.4s0.4,0.6,0.4,0.9l0.1,7.3l-2.7,0l-0.1-7.3
					C379.2,390.3,379.8,389.7,380.5,389.7z"/>
			</g>
			<g>
				<path class="st18" d="M374.4,390.1c0.2,0.2,0.4,0.6,0.4,0.9l0.1,7.3l-2.7,0l-0.1-7.3c0-0.7,0.6-1.3,1.3-1.3
					C373.8,389.7,374.1,389.9,374.4,390.1L374.4,390.1z"/>
			</g>
			<g>
				<circle class="st8" cx="397.3" cy="382.2" r="1.4"/>
			</g>
			<g>
				<circle class="st8" cx="390.9" cy="382.2" r="1.4"/>
			</g>
		</g>
	</g>
	<g>
		<g id="layer1_00000063624832006526290570000005271466992456301496_" transform="translate(0 -280.067)">
			<path id="path8277_00000044895325278540372120000012425894372860638137_" class="st0" d="M636.9,808.8c-2.2,2.2-2.2,5.8,0,8
				c1.6,1.5,3.9,2.1,5.9,1.3l7.8,6.9c-3.3,3-5.5,7.1-6.1,11.5h-2c-0.9-2-2.9-3.3-5.1-3.3c-3.1,0-5.7,2.5-5.7,5.7
				c0,3.1,2.5,5.7,5.7,5.7c2.2,0,4.2-1.3,5.1-3.3h2c0.4,3.4,1.8,6.7,4,9.3l-1.5,1.5c-2.1-0.7-4.4-0.2-5.9,1.3c-2.2,2.2-2.2,5.8,0,8
				c2.2,2.2,5.8,2.2,8,0c1.5-1.6,2.1-3.9,1.3-5.9l1.6-1.6c2.7,2,5.9,3.2,9.3,3.6v2.5c-2,0.9-3.3,2.9-3.3,5.1c0,3.1,2.5,5.7,5.7,5.7
				c3.1,0,5.7-2.5,5.7-5.7c0-2.2-1.3-4.2-3.3-5.1v-2.6c4.1-0.7,7.9-2.7,10.7-5.8c-0.6,2-0.1,4.1,1.4,5.6c2.2,2.2,5.8,2.2,8,0
				c2.2-2.2,2.2-5.8,0-8c-1.6-1.5-3.9-2.1-5.9-1.3l-0.5-0.5c1-1.9,1.6-3.9,1.9-6h2.1c0.9,2,2.9,3.3,5.1,3.3c3.1,0,5.7-2.5,5.7-5.7
				c0-3.1-2.5-5.7-5.7-5.7c-2.2,0-4.2,1.3-5.1,3.3h-2.1c-0.4-3.1-1.6-6.1-3.5-8.7l6.4-6.4c2.1,0.7,4.4,0.2,5.9-1.3
				c2.2-2.2,2.2-5.8,0-8c-2.2-2.2-5.8-2.2-8,0c-1.5,1.6-2.1,3.9-1.3,5.9l-6.3,6.3c-2.5-2-5.5-3.4-8.8-3.9v-2.7
				c2-0.9,3.3-2.9,3.3-5.1c0-3.1-2.5-5.7-5.7-5.7c-3.1,0-5.7,2.5-5.7,5.7c0,2.2,1.3,4.2,3.3,5.1v2.5c-2.3,0.2-4.6,0.9-6.6,1.9
				l-8.4-7.6c0.7-2.1,0.2-4.4-1.3-5.9C642,806.3,639,806.7,636.9,808.8z"/>
			<g>
				<path id="circle10679_00000025400780392942855120000007920397362108738491_" class="st1" d="M672.7,844.4c0,2-1.7,3.7-3.7,3.7
					s-3.7-1.7-3.7-3.7s1.7-3.7,3.7-3.7S672.7,842.3,672.7,844.4z"/>
				<path id="path10719_00000057827831460621254210000008701260741834936249_" vector-effect="none" class="st0" d="M684.7,835.1
					c-0.4,0.4-0.8,0.9-1,1.5h-2.1c0.1,1.6,0.2,3.2,0,4.8h2.1c0.3,0.6,0.6,1.1,1.1,1.5C685.2,839.8,685,837,684.7,835.1L684.7,835.1z
					 M676.8,851.6c-0.4,1.4-0.3,2.9,0.4,4.2c2.3-1.9,4.7-4.5,6.2-8.1c-1-0.2-2.1-0.2-3.2,0.2C678.9,849,677.9,850.3,676.8,851.6z
					 M666,857.4l-4.8,0.2v2.5c-0.4,0.2-0.9,0.5-1.4,0.9c2.8,0.6,5.3,0.4,7.5-0.1c-0.4-0.3-0.8-0.6-1.3-0.8V857.4z"/>
				<path id="path8525_00000053511799382409391280000012842426274451338908_" class="st1" d="M662.7,834.3c0,2.8-2.3,5.2-5.2,5.2
					c-2.8,0-5.2-2.3-5.2-5.2c0-2.8,2.3-5.2,5.2-5.2h0C660.4,829.1,662.7,831.5,662.7,834.3L662.7,834.3z"/>
			</g>
		</g>
	</g>
	<g>
		<g id="layer1_00000108995102895259955980000016089827252776693160_" transform="translate(0 -280.067)">
			<path id="path8277_00000074443491155979914680000001643354883545179532_" class="st0" d="M514.8,437.4c-1.7,1.7-1.7,4.5,0,6.3
				c1.2,1.2,3,1.6,4.6,1l6.1,5.5c-2.6,2.3-4.3,5.6-4.8,9h-1.6c-0.7-1.6-2.3-2.6-4-2.6c-2.4,0-4.4,2-4.4,4.4c0,2.4,2,4.4,4.4,4.4
				c1.7,0,3.3-1,4-2.6h1.6c0.3,2.7,1.4,5.2,3.1,7.3l-1.2,1.2c-1.6-0.6-3.4-0.2-4.6,1c-1.7,1.7-1.7,4.5,0,6.3c1.7,1.7,4.5,1.7,6.3,0
				c1.2-1.2,1.6-3,1-4.6l1.2-1.2c2.1,1.6,4.6,2.5,7.3,2.8v2c-1.6,0.7-2.6,2.3-2.6,4c0,2.4,2,4.4,4.4,4.4c2.4,0,4.4-2,4.4-4.4
				c0-1.7-1-3.3-2.6-4v-2.1c3.2-0.5,6.2-2.1,8.4-4.5c-0.5,1.6-0.1,3.2,1.1,4.4c1.7,1.7,4.5,1.7,6.3,0c1.7-1.7,1.7-4.5,0-6.3
				c-1.2-1.2-3-1.6-4.6-1l-0.4-0.4c0.8-1.5,1.2-3.1,1.5-4.7h1.6c0.7,1.6,2.3,2.6,4,2.6c2.4,0,4.4-2,4.4-4.4c0-2.4-2-4.4-4.4-4.4
				c-1.7,0-3.3,1-4,2.6h-1.6c-0.3-2.5-1.3-4.8-2.7-6.8l5-5c1.6,0.6,3.4,0.2,4.6-1c1.7-1.7,1.7-4.5,0-6.3c-1.7-1.7-4.5-1.7-6.3,0
				c-1.2,1.2-1.6,3-1,4.6l-5,5c-2-1.6-4.4-2.7-6.9-3.1v-2.1c1.6-0.7,2.6-2.3,2.6-4c0-2.4-2-4.4-4.4-4.4c-2.4,0-4.4,2-4.4,4.4
				c0,1.7,1,3.3,2.6,4v2c-1.8,0.2-3.6,0.7-5.2,1.5l-6.6-5.9c0.6-1.6,0.2-3.4-1-4.6C518.8,435.5,516.4,435.8,514.8,437.4z"/>
			<g>
				<path id="circle10679_00000129918374296416566620000014774836855929088658_" class="st1" d="M542.9,465.4c0,1.6-1.3,2.9-2.9,2.9
					c-1.6,0-2.9-1.3-2.9-2.9c0-1.6,1.3-2.9,2.9-2.9C541.6,462.5,542.9,463.8,542.9,465.4z"/>
				<path id="path10719_00000077288399805320044360000012225768767627162535_" vector-effect="none" class="st0" d="M552.3,458
					c-0.3,0.3-0.6,0.7-0.8,1.2h-1.6c0.1,1.2,0.1,2.5,0,3.8h1.6c0.2,0.4,0.5,0.9,0.8,1.2C552.7,461.8,552.5,459.6,552.3,458
					L552.3,458z M546.1,471c-0.3,1.1-0.2,2.3,0.3,3.3c1.8-1.5,3.7-3.5,4.9-6.4c-0.8-0.2-1.7-0.1-2.5,0.2
					C547.8,469,547,470,546.1,471z M537.7,475.6l-3.8,0.1v2c-0.3,0.2-0.7,0.4-1.1,0.7c2.2,0.4,4.2,0.3,5.9-0.1
					c-0.3-0.3-0.6-0.5-1-0.7V475.6z"/>
				<path id="path8525_00000168809253698089052770000016154226307151653010_" class="st1" d="M535.1,457.4c0,2.2-1.8,4-4,4
					c-2.2,0-4-1.8-4-4c0-2.2,1.8-4,4-4h0C533.3,453.4,535.1,455.2,535.1,457.4L535.1,457.4z"/>
			</g>
		</g>
	</g>
</g>
</svg>
