<?xml version="1.0" encoding="utf-8"?>
<!-- Generator: Adobe Illustrator 21.0.0, SVG Export Plug-In . SVG Version: 6.00 Build 0)  -->
<svg version="1.1" id="Layer_1" xmlns="http://www.w3.org/2000/svg" xmlns:xlink="http://www.w3.org/1999/xlink" x="0px" y="0px"
	 viewBox="0 0 649 150" style="enable-background:new 0 0 649 150;" xml:space="preserve">
<style type="text/css">
	.st0{fill:#22A850;}
	.st1{fill:#0A3143;stroke:#0A3143;stroke-width:10;stroke-miterlimit:10;}
	.st2{fill:url(#SVGID_1_);}
	.st3{fill:url(#SVGID_2_);}
	.st4{fill:url(#SVGID_3_);}
	.st5{fill:url(#SVGID_4_);}
	.st6{fill:url(#SVGID_5_);}
	.st7{fill:url(#SVGID_6_);}
	.st8{fill:url(#SVGID_7_);}
	.st9{fill:url(#SVGID_8_);}
	.st10{fill:#AD2545;}
	.st11{fill:url(#SVGID_9_);}
</style>
<g>
	<polygon class="st0" points="603.2,135.5 615.2,125.5 640.2,125.5 627.2,135.5 	"/>
	<polygon class="st0" points="522.2,108.5 514.2,118.2 536.2,122.5 545.2,111.7 	"/>
	<polygon class="st0" points="268.2,107.5 266.2,96.5 276.2,97.1 	"/>
	<path class="st1" d="M54.2,125.5l-24,5l-22-80c3.8-3.5,10.1-8.4,19-12c7.3-3,13.9-4,18.6-4.4c3.8-0.4,11.1-0.7,19.4,2.4
		c6.8,2.5,11.5,6.3,14.1,8.8C84.6,52,89.8,58.7,95,65.4l14.3-42.9l25-4l43,70l-11-76l26-2l45,47l-4-50l25-3l4.4,14.9l-0.4-9.9
		c4.3-1.9,10.8-4.2,19-5c10.1-1,18.4,0.8,23.4,2.3c4.6,1,12,3.3,19.6,8.7c6.3,4.5,10.5,9.5,13,13c1.6,2.2,3.4,5.2,5,9
		c1.8,4.3,2.6,8.3,3,11.3c0.8,0.2,1.7,0.3,2.5,0.5l-0.5-30.8l1-14h68l4,16l4-14l38,5l9,44.5l9-28.5l7-15l40,5l1,12l8-12l25,5
		l-14,81.6l58-73.6l25,6l10,89l-13,10h-24l-1-20l-26-5.1l-4,6.1l-10,10l-19.3-12l-6.7,8l-22-3v-5l-3,4l-23-2l2.1-40.5l-9.1,28.5
		l-6,10l-25-2l-5.5-34.1l-1.5,21l-5,10.1l-24-1v-12l-4,11l-61-1l-4.9-44.3l-0.4,9.9c-0.3,3.3-1.3,9.8-5.7,16.4
		c-7,10.4-17.6,13.4-20.5,14.1c-3.9,1-8,2-12.5,2.9c-5.1,1-10,1.7-14.5,2.1c-7.5,0-15-0.1-22.5-0.1l-3-11v12l-22,1l-41.4-45l5.4,48
		l-24,3l-2-5l-22.4,7.9l-8.6-10.9l-2-6.8l-27,3.8l-4,19l-25-5l-10-10l0.8-3.2c-2.5,1.7-6.1,3.7-10.8,5.2c-4.8,1.5-9,1.9-12,2
		c1.7,7.7,3.3,15.3,5,23l-22.5,4.8c-4.1-3.1-8.2-6.2-12.4-9.3"/>
	<g>
		<g>
			<g>
				<path d="M71.3,48.5c6.8,1.5,12.5,4.4,17.2,8.6c4.7,4.2,7.5,9.4,8.6,15.5c1.1,5.8,0.4,11.5-1.9,17c-2.3,5.5-6,10.2-10.9,14.2
					c-5,4-10.7,6.6-17.3,8c-2.1,0.4-4.4,0.8-7.1,0.9c2.2,9,3.3,13.5,5.5,22.4c-9.1,2-13.7,3-22.7,5.2c-6.9-25.7-13.9-51.4-20.9-77.1
					c8.9-6.2,17.8-12.4,28.6-14.6C57.5,47,64.5,47,71.3,48.5z M60.7,92c2.5-0.5,4.8-1.6,6.9-3.1c2.1-1.5,3.7-3.3,4.7-5.4
					c1.1-2.1,1.4-4.2,0.9-6.3c-0.7-3.7-2.8-6.5-6.2-8.3c-3.4-1.8-7-2.4-10.8-1.5c-2.4,0.5-4.6,1.6-6.6,3.2c2.1,8.7,3.2,13,5.3,21.7
					C56.9,92.5,58.9,92.4,60.7,92z"/>
				<path d="M150.9,100.1c-9.9,1.4-19.8,2.9-29.6,4.5c-1.8,7.7-2.6,11.6-4.3,19.3c-9.8-2.1-14.8-3.1-24.7-5
					c7.9-27.8,16.4-55.3,25.5-82.7c9.8-1.5,14.7-2.2,24.6-3.5c13.4,25.5,26.3,51.2,38.8,77.2c-9,3.3-13.5,5-22.4,8.5
					C155.7,111,154.1,107.4,150.9,100.1z M141.2,78.3c-3.5-7.8-5.3-11.8-8.9-19.6c-2.2,8.7-3.3,13-5.4,21.7
					C132.7,79.5,135.5,79.1,141.2,78.3z"/>
				<path d="M261.4,19.4c1.3,29.6,2.7,59.1,4,88.7c-9,0.5-13.5,0.8-22.4,1.4C229.6,94,215.8,78.9,201.7,64
					c1.8,16.1,3.6,32.3,5.4,48.4c-8.9,1.2-13.4,1.9-22.3,3.3c-3.8-29.7-7.6-59.4-11.5-89c9.6-0.8,14.4-1.1,24-1.7
					c14.7,14.7,29.1,29.6,43.1,44.8c-1-16-2.1-32-3.1-48.1C247,20.7,251.8,20.2,261.4,19.4z"/>
				<path d="M314.6,24.6c7.7,3.4,16.7,10.2,21.7,17.2c5.3,7.3,7.9,15.6,7.9,24.5c0,12.1-5.3,23.8-15.4,30.7
					c-11.5,7.8-26.8,10.4-40.5,10.9c-6.8,0.3-13.5,0.2-20.2-0.3c-1.1-27.8-2.2-55.5-3.3-83.3c3.7-1.7,7.2-3,10.5-3.8
					c3.3-0.8,6.9-1.3,10.7-1.5C295.2,18.5,306.5,20.9,314.6,24.6z M318.4,62.7c-0.1-3.8-1.2-7.3-3.6-10.2c-2.3-2.9-5.4-5.1-9.1-6.6
					c-3.7-1.5-7.5-2.2-11.4-2.1c-2,0.1-3.7,0.3-5.1,0.6c0.4,13,0.9,26,1.3,38.9C303.6,84,318.8,77.9,318.4,62.7z"/>
				<path d="M411.7,84.2c-0.6,9.2-0.8,13.8-1.4,22.9c-20.4-0.7-40.8-1-61.2-0.9c-0.6-29.1-1.4-58.3-2.1-87.4
					c21.8-0.3,43.7-0.2,65.5,0.3c0.2,9.2,0.2,13.8,0.3,23.1c-13.7-0.6-27.5-1.1-41.2-1.4c0.1,3.6,0.1,5.5,0.2,9.1
					c11.3,0.1,22.7,0.4,34,0.8c0,9.2,0,13.8-0.1,23c-11.1-0.3-22.1-0.6-33.2-0.8c0.1,4.4,0.2,6.6,0.3,10.9
					C385.8,83.8,398.8,83.9,411.7,84.2z"/>
				<path d="M487.6,116c1.3-17.2,2.6-34.4,3.8-51.5c-5.9,16.6-11.7,33.2-17.3,49.9c-9.2-1-13.8-1.5-23.1-2.4
					c-2.8-16.4-5.7-32.9-8.8-49.3c-1.5,15.6-3,31.2-4.5,46.8c-9.3-0.7-13.9-1-23.1-1.6c1.9-29,3.8-58,5.7-86.9
					c7.1,0.9,10.6,1.3,17.7,2.3c7.5,0.8,11.3,1.3,18.8,2.2c3.2,15.7,6.2,31.5,9.1,47.3c4.6-15.2,9.3-30.5,14.2-45.7
					c9.6,1.1,14.4,1.6,23.9,2.9c5.9,0.8,8.8,1.1,14.6,2c-2.6,28.8-5.2,57.5-7.9,86.3C501.5,117.2,496.9,116.8,487.6,116z"/>
				<path d="M527.2,32.9c9.5,1.4,14.3,2.1,23.8,3.7c-5,28.7-9.9,57.4-14.9,86.1c-8.9-1.5-13.4-2.1-22.3-3.4
					C518.3,90.5,522.8,61.7,527.2,32.9z"/>
				<path d="M602.2,115.7c-9.8-2.2-19.6-4.2-29.4-6.1c-4.3,6.6-6.5,9.9-10.8,16.6c-8.5-5.4-12.7-8.1-21.4-13.3
					c17.1-23.3,34.6-46.1,52.8-68.6c9.8,2,14.6,3.1,24.3,5.3c3.7,28.6,6.8,57.2,9.5,85.9c-9.6,0-14.4,0-24,0.1
					C602.8,127.6,602.6,123.7,602.2,115.7z M600.7,91.9c-0.6-8.6-0.8-12.9-1.5-21.4c-5.1,7.4-7.6,11-12.6,18.4
					C592.2,90,595,90.6,600.7,91.9z"/>
			</g>
		</g>
		<g>
			<g>
				<path class="st0" d="M71.3,48.5c6.8,1.5,12.5,4.4,17.2,8.6c4.7,4.2,7.5,9.4,8.6,15.5c1.1,5.8,0.4,11.5-1.9,17
					c-2.3,5.5-6,10.2-10.9,14.2c-5,4-10.7,6.6-17.3,8c-2.1,0.4-4.4,0.8-7.1,0.9c2.2,9,3.3,13.5,5.5,22.4c-9.1,2-13.7,3-22.7,5.2
					c-6.9-25.7-13.9-51.4-20.9-77.1c8.9-6.2,17.8-12.4,28.6-14.6C57.5,47,64.5,47,71.3,48.5z M60.7,92c2.5-0.5,4.8-1.6,6.9-3.1
					c2.1-1.5,3.7-3.3,4.7-5.4c1.1-2.1,1.4-4.2,0.9-6.3c-0.7-3.7-2.8-6.5-6.2-8.3c-3.4-1.8-7-2.4-10.8-1.5c-2.4,0.5-4.6,1.6-6.6,3.2
					c2.1,8.7,3.2,13,5.3,21.7C56.9,92.5,58.9,92.4,60.7,92z"/>
				<path class="st0" d="M150.9,100.1c-9.9,1.4-19.8,2.9-29.6,4.5c-1.8,7.7-2.6,11.6-4.3,19.3c-9.8-2.1-14.8-3.1-24.7-5
					c7.9-27.8,16.4-55.3,25.5-82.7c9.8-1.5,14.7-2.2,24.6-3.5c13.4,25.5,26.3,51.2,38.8,77.2c-9,3.3-13.5,5-22.4,8.5
					C155.7,111,154.1,107.4,150.9,100.1z M141.2,78.3c-3.5-7.8-5.3-11.8-8.9-19.6c-2.2,8.7-3.3,13-5.4,21.7
					C132.7,79.5,135.5,79.1,141.2,78.3z"/>
				<path class="st0" d="M261.4,19.4c1.3,29.6,2.7,59.1,4,88.7c-9,0.5-13.5,0.8-22.4,1.4C229.6,94,215.8,78.9,201.7,64
					c1.8,16.1,3.6,32.3,5.4,48.4c-8.9,1.2-13.4,1.9-22.3,3.3c-3.8-29.7-7.6-59.4-11.5-89c9.6-0.8,14.4-1.1,24-1.7
					c14.7,14.7,29.1,29.6,43.1,44.8c-1-16-2.1-32-3.1-48.1C247,20.7,251.8,20.2,261.4,19.4z"/>
				<path class="st0" d="M314.6,24.6c7.7,3.4,16.7,10.2,21.7,17.2c5.3,7.3,7.9,15.6,7.9,24.5c0,12.1-5.3,23.8-15.4,30.7
					c-11.5,7.8-26.8,10.4-40.5,10.9c-6.8,0.3-13.5,0.2-20.2-0.3c-1.1-27.8-2.2-55.5-3.3-83.3c3.7-1.7,7.2-3,10.5-3.8
					c3.3-0.8,6.9-1.3,10.7-1.5C295.2,18.5,306.5,20.9,314.6,24.6z M318.4,62.7c-0.1-3.8-1.2-7.3-3.6-10.2c-2.3-2.9-5.4-5.1-9.1-6.6
					c-3.7-1.5-7.5-2.2-11.4-2.1c-2,0.1-3.7,0.3-5.1,0.6c0.4,13,0.9,26,1.3,38.9C303.6,84,318.8,77.9,318.4,62.7z"/>
				<path class="st0" d="M411.7,84.2c-0.6,9.2-0.8,13.8-1.4,22.9c-20.4-0.7-40.8-1-61.2-0.9c-0.6-29.1-1.4-58.3-2.1-87.4
					c21.8-0.3,43.7-0.2,65.5,0.3c0.2,9.2,0.2,13.8,0.3,23.1c-13.7-0.6-27.5-1.1-41.2-1.4c0.1,3.6,0.1,5.5,0.2,9.1
					c11.3,0.1,22.7,0.4,34,0.8c0,9.2,0,13.8-0.1,23c-11.1-0.3-22.1-0.6-33.2-0.8c0.1,4.4,0.2,6.6,0.3,10.9
					C385.8,83.8,398.8,83.9,411.7,84.2z"/>
				<path class="st0" d="M487.6,116c1.3-17.2,2.6-34.4,3.8-51.5c-5.9,16.6-11.7,33.2-17.3,49.9c-9.2-1-13.8-1.5-23.1-2.4
					c-2.8-16.4-5.7-32.9-8.8-49.3c-1.5,15.6-3,31.2-4.5,46.8c-9.3-0.7-13.9-1-23.1-1.6c1.9-29,3.8-58,5.7-86.9
					c7.1,0.9,10.6,1.3,17.7,2.3c7.5,0.8,11.3,1.3,18.8,2.2c3.2,15.7,6.2,31.5,9.1,47.3c4.6-15.2,9.3-30.5,14.2-45.7
					c9.6,1.1,14.4,1.6,23.9,2.9c5.9,0.8,8.8,1.1,14.6,2c-2.6,28.8-5.2,57.5-7.9,86.3C501.5,117.2,496.9,116.8,487.6,116z"/>
				<path class="st0" d="M527.2,32.9c9.5,1.4,14.3,2.1,23.8,3.7c-5,28.7-9.9,57.4-14.9,86.1c-8.9-1.5-13.4-2.1-22.3-3.4
					C518.3,90.5,522.8,61.7,527.2,32.9z"/>
				<path class="st0" d="M602.2,115.7c-9.8-2.2-19.6-4.2-29.4-6.1c-4.3,6.6-6.5,9.9-10.8,16.6c-8.5-5.4-12.7-8.1-21.4-13.3
					c17.1-23.3,34.6-46.1,52.8-68.6c9.8,2,14.6,3.1,24.3,5.3c3.7,28.6,6.8,57.2,9.5,85.9c-9.6,0-14.4,0-24,0.1
					C602.8,127.6,602.6,123.7,602.2,115.7z M600.7,91.9c-0.6-8.6-0.8-12.9-1.5-21.4c-5.1,7.4-7.6,11-12.6,18.4
					C592.2,90,595,90.6,600.7,91.9z"/>
			</g>
		</g>
	</g>
	<polygon class="st0" points="550.2,102.5 540.9,112.9 562.2,126.5 572.2,116.5 	"/>
	<g>
		<g>
			<g>
				<path d="M87.2,60.3c-1.2-6.4-4.2-11.8-9-16.1c-2.1-1.9-4.4-3.5-7-4.9c-3.3-1.8-7-3.2-11-4.1c-7.1-1.6-14.5-1.5-21.9,0
					c-5.9,1.2-11.2,3.6-16.3,6.5c-4.6,2.6-9.1,5.7-13.5,8.8c7.3,26.8,14.6,53.7,21.8,80.5c9.5-2.3,14.2-3.3,23.7-5.4
					c-2.3-9.4-3.4-14.1-5.8-23.4c2.8-0.2,5.2-0.5,7.4-1c6.9-1.5,12.9-4.2,18.1-8.4c5.2-4.1,9-9,11.4-14.8
					C87.7,72.2,88.3,66.3,87.2,60.3z M61.3,71.6c-1.1,2.2-2.8,4.1-4.9,5.7c-2.2,1.6-4.6,2.7-7.2,3.3c-2,0.4-4,0.5-6,0.2
					c-1.9-8-3-12.5-4.8-19.6c-0.2-1-0.5-1.9-0.7-3c2.1-1.7,4.4-2.8,6.9-3.3c4-0.9,7.8-0.3,11.3,1.6c1.3,0.7,2.4,1.6,3.4,2.5
					c1.6,1.7,2.6,3.7,3.1,6.1C62.8,67.3,62.4,69.5,61.3,71.6z"/>
				<path d="M152.5,53.6c-5.5-10.9-11.1-21.9-16.8-32.7c-0.4-0.8-0.8-1.5-1.2-2.3c-4,0.5-7.2,1-10.2,1.4c-4.8,0.7-9.2,1.3-15.5,2.3
					c-1.5,4.4-2.9,8.7-4.3,13.1c-2.4,7.4-4.8,14.9-7.1,22.3c-1.5,4.9-3.1,9.8-4.5,14.8c-3.7,12-7.2,24-10.6,36.1
					c10.4,2,15.5,3.1,25.8,5.3c1.8-8,2.6-12.1,4.5-20.1c10.3-1.7,20.6-3.3,30.9-4.7c3.3,7.6,5,11.4,8.3,19.1
					c9.3-3.6,14-5.4,23.3-8.9C167.6,83.9,160.1,68.8,152.5,53.6z M127.7,67c-3,0.4-5.6,0.8-9.4,1.4c1.2-5,2.1-8.6,3-12.4
					c0.8-3,1.6-6.2,2.6-10.2c3.7,8.2,5.6,12.3,9.2,20.4C131.1,66.5,129.3,66.8,127.7,67z"/>
				<path d="M262.9,97.3c-0.9-20-1.9-40.1-2.8-60.1c-0.5-10.8-1-21.6-1.5-32.4c-5.8,0.5-9.9,0.9-14.2,1.3c-3.2,0.3-6.5,0.7-10.8,1.1
					c1.1,16.7,2.1,33.5,3.2,50.2c-4.8-5.2-9.6-10.3-14.5-15.4c-10-10.6-20.2-21-30.6-31.4c-4.5,0.3-7.9,0.5-11.3,0.8
					c-4.2,0.3-8.2,0.6-13.8,1.1c4,31,8,62,12,93c9.3-1.5,13.9-2.1,23.3-3.4c-1.9-16.9-3.7-33.7-5.6-50.6
					c14.7,15.5,29,31.3,43.1,47.4C248.8,98.1,253.5,97.8,262.9,97.3z"/>
				<path d="M336.9,28.1c-0.4-0.6-0.9-1.2-1.4-1.8c-2.7-3.3-6.1-6.4-9.7-9.1c-3.8-2.9-7.8-5.3-11.6-7c-8.5-3.8-20.3-6.3-29.8-5.9
					c-3.9,0.2-7.7,0.6-11.1,1.5s-7.1,2.2-11,4c0.4,9.9,0.8,19.8,1.2,29.8c0.8,19.1,1.5,38.1,2.3,57.2c7,0.4,14,0.5,21.1,0.3
					c14.3-0.5,30.2-3.2,42.3-11.4c10.5-7.1,16.1-19.4,16.1-31.9v-0.1C345.2,44.4,342.4,35.7,336.9,28.1z M289,71.6
					c-0.3-8.5-0.6-17-0.9-25.5c-0.2-5.1-0.3-10.1-0.5-15.2c1.4-0.4,3.2-0.6,5.3-0.6c4.1-0.1,8,0.6,11.9,2.2c2.8,1.1,5.2,2.6,7.3,4.5
					c0.8,0.7,1.5,1.5,2.2,2.3c2.4,3,3.6,6.6,3.7,10.6C318.5,65.9,302.7,72.2,289,71.6z"/>
				<path d="M375,72.1c-0.1-4.6-0.2-6.9-0.3-11.4c11.6,0.2,23.1,0.4,34.7,0.8c0-9.6,0.1-14.4,0.1-24c-11.8-0.4-23.7-0.7-35.5-0.8
					c-0.1-3.8-0.1-5.7-0.2-9.5c14.4,0.3,28.7,0.8,43,1.4c-0.1-9.6-0.2-14.4-0.4-24.1c-3.5-0.1-7.1-0.2-10.6-0.2
					C393.3,4.1,380.8,4,368.3,4c-6.8,0-13.6,0.1-20.4,0.2c0.1,4.9,0.3,9.9,0.4,14.8c0.3,11.8,0.6,23.5,0.9,35.3
					c0.3,13.7,0.6,27.4,0.9,41.1c21.3-0.1,42.6,0.2,63.9,0.9c0.6-9.6,0.9-14.4,1.5-24C402,72.1,388.5,72,375,72.1z"/>
				<path d="M512,15.8c-10-1.3-15-1.9-25-3c-5.1,15.9-10,31.7-14.8,47.7c-3-16.5-6.2-33-9.5-49.4c-1.1-0.1-2-0.3-3-0.4
					c-6-0.7-9.9-1.2-16.7-1.9c-7.4-1-11.1-1.5-18.5-2.4c-0.1,0.8-0.1,1.6-0.2,2.5c-1.9,29.4-3.8,58.9-5.7,88.3
					c9.7,0.6,14.5,0.9,24.2,1.7c1.6-16.3,3.1-32.6,4.7-48.9c3.2,17.1,6.2,34.3,9.2,51.4c6.3,0.6,10.6,1,15.5,1.5c0,0,0,0,0,0
					c2.6,0.3,5.3,0.6,8.6,1c0.6-1.7,1.2-3.4,1.8-5.1c0.8-2.2,1.5-4.5,2.3-6.7c2.8-8,5.5-16.1,8.4-24.1c1.9-5.4,3.8-10.8,5.7-16.2
					c-0.4,6-0.9,11.9-1.3,17.9c-0.6,7.6-1.1,15.2-1.7,22.8c-0.2,3.3-0.5,6.5-0.7,9.8c-0.1,1.1-0.2,2.2-0.3,3.3
					c1.5,0.1,2.8,0.3,4.1,0.4c7.2,0.6,11.9,1.1,20.1,2c0.2-2.3,0.4-4.5,0.6-6.7c0,0,0,0,0,0c0.2-2.1,0.4-4.3,0.6-6.4
					c0.4-4.3,0.8-8.5,1.2-12.8c1.1-12.1,2.3-24.2,3.4-36.3c0.8-9.3,1.7-18.5,2.5-27.8C521.1,17,518.1,16.6,512,15.8z"/>
				<path d="M553.9,21.6c-5.8-0.9-10.5-1.6-17.7-2.7c-1.4,9.3-2.9,18.5-4.3,27.8c-1.8,11.9-3.7,23.8-5.5,35.8
					c-1.4,8.9-2.7,17.7-4.1,26.6c9.3,1.4,14,2.1,23.3,3.6c3.4-20,6.9-40.1,10.4-60.1c1.7-9.9,3.4-19.8,5.1-29.8
					C558.3,22.3,556,21.9,553.9,21.6z"/>
				<path d="M640.4,124.4c-0.7-7.5-1.4-15-2.2-22.5v0c-1.7-16.3-3.5-32.5-5.5-48.8c-0.7-5.6-1.4-11.3-2.1-16.9
					c-6.8-1.5-11.3-2.5-16.6-3.7c-2.6-0.6-5.5-1.1-8.8-1.9c-9.5,11.8-18.9,23.7-28.2,35.8c-2,2.6-3.9,5.1-5.9,7.7
					c-5.4,7-10.6,14.1-15.9,21.2c-1.7,2.3-3.4,4.6-5.1,7c9,5.5,13.5,8.3,22.3,13.9c4.4-6.9,6.7-10.4,11.2-17.3
					c2.6,0.5,5.3,1,7.9,1.6c4.5,0.9,9.1,1.9,13.6,2.8c3.1,0.6,6.1,1.3,9.1,2c0.2,3.3,0.3,5.9,0.5,8.3c0.2,3.9,0.4,7.4,0.6,12.4
					c2.5,0,4.7-0.1,6.7-0.1c5-0.1,9-0.1,14.5-0.1h0c1.2,0,2.5,0,3.8,0C640.5,125.4,640.4,124.9,640.4,124.4z M598.1,77.3
					c5.2-7.7,7.9-11.6,13.2-19.3c0.7,9,1,13.4,1.5,22.4C606.9,79.1,604,78.5,598.1,77.3z"/>
			</g>
		</g>
		<g>
			<g>
				
					<linearGradient id="SVGID_1_" gradientUnits="userSpaceOnUse" x1="261.29" y1="315.46" x2="261.29" y2="188.5309" gradientTransform="matrix(1 0 0 1 63.2402 -184.5051)">
					<stop  offset="0" style="stop-color:#8CC639"/>
					<stop  offset="1" style="stop-color:#C6DE52"/>
				</linearGradient>
				<path class="st2" d="M87.2,60.3c-1.2-6.4-4.2-11.8-9-16.1c-2.1-1.9-4.4-3.5-7-4.9c-3.3-1.8-7-3.2-11-4.1
					c-7.1-1.6-14.5-1.5-21.9,0c-5.9,1.2-11.2,3.6-16.3,6.5c-4.6,2.6-9.1,5.7-13.5,8.8c7.3,26.8,14.6,53.7,21.8,80.5
					c9.5-2.3,14.2-3.3,23.7-5.4c-2.3-9.4-3.4-14.1-5.8-23.4c2.8-0.2,5.2-0.5,7.4-1c6.9-1.5,12.9-4.2,18.1-8.4c5.2-4.1,9-9,11.4-14.8
					C87.7,72.2,88.3,66.3,87.2,60.3z M61.3,71.6c-1.1,2.2-2.8,4.1-4.9,5.7c-2.2,1.6-4.6,2.7-7.2,3.3c-2,0.4-4,0.5-6,0.2
					c-1.9-8-3-12.5-4.8-19.6c-0.2-1-0.5-1.9-0.7-3c2.1-1.7,4.4-2.8,6.9-3.3c4-0.9,7.8-0.3,11.3,1.6c1.3,0.7,2.4,1.6,3.4,2.5
					c1.6,1.7,2.6,3.7,3.1,6.1C62.8,67.3,62.4,69.5,61.3,71.6z"/>
				
					<linearGradient id="SVGID_2_" gradientUnits="userSpaceOnUse" x1="261.29" y1="315.46" x2="261.29" y2="188.5309" gradientTransform="matrix(1 0 0 1 63.2402 -184.5051)">
					<stop  offset="0" style="stop-color:#8CC639"/>
					<stop  offset="1" style="stop-color:#C6DE52"/>
				</linearGradient>
				<path class="st3" d="M152.5,53.6c-5.5-10.9-11.1-21.9-16.8-32.7c-0.4-0.8-0.8-1.5-1.2-2.3c-4,0.5-7.2,1-10.2,1.4
					c-4.8,0.7-9.2,1.3-15.5,2.3c-1.5,4.4-2.9,8.7-4.3,13.1c-2.4,7.4-4.8,14.9-7.1,22.3c-1.5,4.9-3.1,9.8-4.5,14.8
					c-3.7,12-7.2,24-10.6,36.1c10.4,2,15.5,3.1,25.8,5.3c1.8-8,2.6-12.1,4.5-20.1c10.3-1.7,20.6-3.3,30.9-4.7
					c3.3,7.6,5,11.4,8.3,19.1c9.3-3.6,14-5.4,23.3-8.9C167.6,83.9,160.1,68.8,152.5,53.6z M127.7,67c-3,0.4-5.6,0.8-9.4,1.4
					c1.2-5,2.1-8.6,3-12.4c0.8-3,1.6-6.2,2.6-10.2c3.7,8.2,5.6,12.3,9.2,20.4C131.1,66.5,129.3,66.8,127.7,67z"/>
				
					<linearGradient id="SVGID_3_" gradientUnits="userSpaceOnUse" x1="261.29" y1="315.46" x2="261.29" y2="188.5309" gradientTransform="matrix(1 0 0 1 63.2402 -184.5051)">
					<stop  offset="0" style="stop-color:#8CC639"/>
					<stop  offset="1" style="stop-color:#C6DE52"/>
				</linearGradient>
				<path class="st4" d="M262.9,97.3c-0.9-20-1.9-40.1-2.8-60.1c-0.5-10.8-1-21.6-1.5-32.4c-5.8,0.5-9.9,0.9-14.2,1.3
					c-3.2,0.3-6.5,0.7-10.8,1.1c1.1,16.7,2.1,33.5,3.2,50.2c-4.8-5.2-9.6-10.3-14.5-15.4c-10-10.6-20.2-21-30.6-31.4
					c-4.5,0.3-7.9,0.5-11.3,0.8c-4.2,0.3-8.2,0.6-13.8,1.1c4,31,8,62,12,93c9.3-1.5,13.9-2.1,23.3-3.4c-1.9-16.9-3.7-33.7-5.6-50.6
					c14.7,15.5,29,31.3,43.1,47.4C248.8,98.1,253.5,97.8,262.9,97.3z"/>
				
					<linearGradient id="SVGID_4_" gradientUnits="userSpaceOnUse" x1="261.29" y1="315.46" x2="261.29" y2="188.5309" gradientTransform="matrix(1 0 0 1 63.2402 -184.5051)">
					<stop  offset="0" style="stop-color:#8CC639"/>
					<stop  offset="1" style="stop-color:#C6DE52"/>
				</linearGradient>
				<path class="st5" d="M336.9,28.1c-0.4-0.6-0.9-1.2-1.4-1.8c-2.7-3.3-6.1-6.4-9.7-9.1c-3.8-2.9-7.8-5.3-11.6-7
					c-8.5-3.8-20.3-6.3-29.8-5.9c-3.9,0.2-7.7,0.6-11.1,1.5s-7.1,2.2-11,4c0.4,9.9,0.8,19.8,1.2,29.8c0.8,19.1,1.5,38.1,2.3,57.2
					c7,0.4,14,0.5,21.1,0.3c14.3-0.5,30.2-3.2,42.3-11.4c10.5-7.1,16.1-19.4,16.1-31.9v-0.1C345.2,44.4,342.4,35.7,336.9,28.1z
					 M289,71.6c-0.3-8.5-0.6-17-0.9-25.5c-0.2-5.1-0.3-10.1-0.5-15.2c1.4-0.4,3.2-0.6,5.3-0.6c4.1-0.1,8,0.6,11.9,2.2
					c2.8,1.1,5.2,2.6,7.3,4.5c0.8,0.7,1.5,1.5,2.2,2.3c2.4,3,3.6,6.6,3.7,10.6C318.5,65.9,302.7,72.2,289,71.6z"/>
				
					<linearGradient id="SVGID_5_" gradientUnits="userSpaceOnUse" x1="261.29" y1="315.46" x2="261.29" y2="188.5309" gradientTransform="matrix(1 0 0 1 63.2402 -184.5051)">
					<stop  offset="0" style="stop-color:#8CC639"/>
					<stop  offset="1" style="stop-color:#C6DE52"/>
				</linearGradient>
				<path class="st6" d="M375,72.1c-0.1-4.6-0.2-6.9-0.3-11.4c11.6,0.2,23.1,0.4,34.7,0.8c0-9.6,0.1-14.4,0.1-24
					c-11.8-0.4-23.7-0.7-35.5-0.8c-0.1-3.8-0.1-5.7-0.2-9.5c14.4,0.3,28.7,0.8,43,1.4c-0.1-9.6-0.2-14.4-0.4-24.1
					c-3.5-0.1-7.1-0.2-10.6-0.2C393.3,4.1,380.8,4,368.3,4c-6.8,0-13.6,0.1-20.4,0.2c0.1,4.9,0.3,9.9,0.4,14.8
					c0.3,11.8,0.6,23.5,0.9,35.3c0.3,13.7,0.6,27.4,0.9,41.1c21.3-0.1,42.6,0.2,63.9,0.9c0.6-9.6,0.9-14.4,1.5-24
					C402,72.1,388.5,72,375,72.1z"/>
				
					<linearGradient id="SVGID_6_" gradientUnits="userSpaceOnUse" x1="261.29" y1="315.46" x2="261.29" y2="188.5309" gradientTransform="matrix(1 0 0 1 63.2402 -184.5051)">
					<stop  offset="0" style="stop-color:#8CC639"/>
					<stop  offset="1" style="stop-color:#C6DE52"/>
				</linearGradient>
				<path class="st7" d="M512,15.8c-10-1.3-15-1.9-25-3c-5.1,15.9-10,31.7-14.8,47.7c-3-16.5-6.2-33-9.5-49.4c-1.1-0.1-2-0.3-3-0.4
					c-6-0.7-9.9-1.2-16.7-1.9c-7.4-1-11.1-1.5-18.5-2.4c-0.1,0.8-0.1,1.6-0.2,2.5c-1.9,29.4-3.8,58.9-5.7,88.3
					c9.7,0.6,14.5,0.9,24.2,1.7c1.6-16.3,3.1-32.6,4.7-48.9c3.2,17.1,6.2,34.3,9.2,51.4c6.3,0.6,10.6,1,15.5,1.5c0,0,0,0,0,0
					c2.6,0.3,5.3,0.6,8.6,1c0.6-1.7,1.2-3.4,1.8-5.1c0.8-2.2,1.5-4.5,2.3-6.7c2.8-8,5.5-16.1,8.4-24.1c1.9-5.4,3.8-10.8,5.7-16.2
					c-0.4,6-0.9,11.9-1.3,17.9c-0.6,7.6-1.1,15.2-1.7,22.8c-0.2,3.3-0.5,6.5-0.7,9.8c-0.1,1.1-0.2,2.2-0.3,3.3
					c1.5,0.1,2.8,0.3,4.1,0.4c7.2,0.6,11.9,1.1,20.1,2c0.2-2.3,0.4-4.5,0.6-6.7c0,0,0,0,0,0c0.2-2.1,0.4-4.3,0.6-6.4
					c0.4-4.3,0.8-8.5,1.2-12.8c1.1-12.1,2.3-24.2,3.4-36.3c0.8-9.3,1.7-18.5,2.5-27.8C521.1,17,518.1,16.6,512,15.8z"/>
				
					<linearGradient id="SVGID_7_" gradientUnits="userSpaceOnUse" x1="261.29" y1="315.46" x2="261.29" y2="188.5309" gradientTransform="matrix(1 0 0 1 63.2402 -184.5051)">
					<stop  offset="0" style="stop-color:#8CC639"/>
					<stop  offset="1" style="stop-color:#C6DE52"/>
				</linearGradient>
				<path class="st8" d="M553.9,21.6c-5.8-0.9-10.5-1.6-17.7-2.7c-1.4,9.3-2.9,18.5-4.3,27.8c-1.8,11.9-3.7,23.8-5.5,35.8
					c-1.4,8.9-2.7,17.7-4.1,26.6c9.3,1.4,14,2.1,23.3,3.6c3.4-20,6.9-40.1,10.4-60.1c1.7-9.9,3.4-19.8,5.1-29.8
					C558.3,22.3,556,21.9,553.9,21.6z"/>
				
					<linearGradient id="SVGID_8_" gradientUnits="userSpaceOnUse" x1="261.29" y1="315.46" x2="261.29" y2="188.5309" gradientTransform="matrix(1 0 0 1 63.2402 -184.5051)">
					<stop  offset="0" style="stop-color:#8CC639"/>
					<stop  offset="1" style="stop-color:#C6DE52"/>
				</linearGradient>
				<path class="st9" d="M640.4,124.4c-0.7-7.5-1.4-15-2.2-22.5v0c-1.7-16.3-3.5-32.5-5.5-48.8c-0.7-5.6-1.4-11.3-2.1-16.9
					c-6.8-1.5-11.3-2.5-16.6-3.7c-2.6-0.6-5.5-1.1-8.8-1.9c-9.5,11.8-18.9,23.7-28.2,35.8c-2,2.6-3.9,5.1-5.9,7.7
					c-5.4,7-10.6,14.1-15.9,21.2c-1.7,2.3-3.4,4.6-5.1,7c9,5.5,13.5,8.3,22.3,13.9c4.4-6.9,6.7-10.4,11.2-17.3
					c2.6,0.5,5.3,1,7.9,1.6c4.5,0.9,9.1,1.9,13.6,2.8c3.1,0.6,6.1,1.3,9.1,2c0.2,3.3,0.3,5.9,0.5,8.3c0.2,3.9,0.4,7.4,0.6,12.4
					c2.5,0,4.7-0.1,6.7-0.1c5-0.1,9-0.1,14.5-0.1h0c1.2,0,2.5,0,3.8,0C640.5,125.4,640.4,124.9,640.4,124.4z M598.1,77.3
					c5.2-7.7,7.9-11.6,13.2-19.3c0.7,9,1,13.4,1.5,22.4C606.9,79.1,604,78.5,598.1,77.3z"/>
			</g>
		</g>
	</g>
	<polygon class="st0" points="43.2,140.5 30.2,130.5 54.2,125.5 65.2,135.5 	"/>
	<polygon class="st0" points="117.2,123.5 108.2,113.5 82.2,107.5 92.2,118.5 	"/>
	<polygon class="st0" points="151.2,107.5 159.2,118.5 181.2,109.5 178.7,105.3 175.2,99.5 	"/>
	<polygon class="st0" points="185.2,115.5 207.2,112.5 202.2,101.5 178.2,105.5 	"/>
	<polygon class="st0" points="243.2,108.5 239.2,99.5 263.2,97.5 265.5,107 	"/>
	<path class="st0" d="M134.2,18.5"/>
	<path class="st0" d="M142.2,32.5"/>
	<line class="st0" x1="265.2" y1="97.5" x2="275.6" y2="97"/>
	<path class="st0" d="M413.2,42.5"/>
	<path class="st0" d="M413.2,42.5"/>
	<polygon class="st0" points="416.2,28.5 412.7,42 412.6,28.5 	"/>
	<polygon class="st0" points="409.2,61.5 405.9,72.1 405.7,61.4 	"/>
	<polygon class="st0" points="438.2,109.5 443.2,98.5 418.2,97.5 414.7,107.4 	"/>
	<polyline class="st0" points="474.2,114.5 480.2,103.5 456.2,101.5 451.2,111.5 474.2,114.5 	"/>
	<polyline class="st0" points="519.2,107.5 511.2,118.5 487.9,116.1 495.2,105.5 519.2,107.5 	"/>
	<polyline class="st0" points="527.2,32.5 536.2,18.5 533.9,34 527.2,32.5 	"/>
	<polygon class="st0" points="414.2,96.5 409.2,107.5 410.2,95.5 	"/>
	<polyline class="st0" points="615.2,126.5 603.2,135.5 627.2,135.5 640.2,126.5 615.2,126.5 	"/>
	<polygon class="st0" points="522.2,109.5 514.2,118.5 536.2,122.5 545.2,111.7 	"/>
	<path class="st10" d="M71.2,39.2c-0.5,8.4-5.2,15.7-12,19.8c-0.9-1-2-1.8-3.4-2.5c-3.5-1.9-7.3-2.5-11.3-1.6
		c-2.5,0.5-4.8,1.7-6.9,3.3c0.3,1.1,0.5,2,0.7,3C29.9,58.2,23.5,50.7,22,41.6c5.1-2.9,10.4-5.2,16.3-6.5c7.4-1.5,14.8-1.6,21.9,0
		C64.2,36,67.9,37.4,71.2,39.2z"/>
	<path class="st10" d="M127.9,69.8c0,9.8-7.9,17.7-17.7,17.7c-8.9,0-16.2-6.5-17.5-15c1.5-4.9,3-9.8,4.5-14.8
		c3.2-3.5,7.8-5.6,12.9-5.6c4.2,0,8.1,1.5,11.1,3.9c-0.9,3.8-1.8,7.4-3,12.4c3.9-0.6,6.4-1,9.4-1.4
		C127.9,67.9,127.9,68.9,127.9,69.8z"/>
	<path class="st10" d="M124.3,20C124.3,20,124.3,20,124.3,20c0,8.8-7.1,15.9-15.8,15.9c-1.4,0-2.7-0.2-4-0.5
		c1.4-4.4,2.9-8.7,4.3-13.1C115.1,21.4,119.4,20.7,124.3,20z"/>
	<path class="st10" d="M152.5,53.6c-1.6,0.5-3.3,0.7-5,0.7c-10.4,0-18.8-8.4-18.8-18.8c0-5.9,2.7-11.2,7-14.6
		C141.3,31.8,146.9,42.7,152.5,53.6z"/>
	<path class="st10" d="M222.4,41.9c-4.8,5-11.4,8.1-18.9,8.1c-14.5,0-26.2-11.7-26.2-26.2c0-4.5,1.1-8.8,3.2-12.5
		c3.4-0.2,6.9-0.5,11.3-0.8C202.1,20.8,212.3,31.3,222.4,41.9z"/>
	<path class="st10" d="M258.7,4.7c0.5,10.8,1,21.6,1.5,32.4c-9.2-7.4-15.3-18.5-15.7-31.1C248.8,5.6,252.9,5.2,258.7,4.7z"/>
	<path class="st10" d="M325.8,17.1c-2.5,7.9-7.3,14.8-13.6,19.9c-2-1.9-4.5-3.4-7.3-4.5c-3.9-1.6-7.9-2.3-11.9-2.2
		c-2.1,0.1-3.9,0.3-5.3,0.6c0.2,5.1,0.3,10.1,0.5,15.2c-0.7,0-1.4,0-2.1,0c-8.3,0-16.1-2.4-22.6-6.6c-0.4-9.9-0.8-19.8-1.2-29.8
		c3.9-1.8,7.5-3.1,11-4s7.2-1.3,11.1-1.5c9.5-0.5,21.3,2.1,29.8,5.9C318,11.8,322,14.3,325.8,17.1z"/>
	<path class="st10" d="M336.9,28.1c5.5,7.6,8.3,16.3,8.3,25.5v0.1c-7.5-2-13.1-8.9-13.1-17.1c0-3.9,1.3-7.5,3.4-10.4
		C336,26.9,336.5,27.5,336.9,28.1z"/>
	<path class="st10" d="M367.5,36.6c0,9.8-7.9,17.7-17.7,17.7c-0.2,0-0.4,0-0.6,0c-0.3-11.8-0.6-23.5-0.9-35.3c0.5,0,1-0.1,1.5-0.1
		C359.6,18.9,367.5,26.9,367.5,36.6z"/>
	<path class="st10" d="M405.7,4.3c-1,9.5-9,16.8-18.7,16.8c-9.8,0-17.9-7.5-18.7-17.1C380.8,4,393.3,4.1,405.7,4.3z"/>
	<path class="st10" d="M459.8,10.7c-4.5,3.8-10.3,6-16.7,6c-7.3,0-14-3-18.7-7.9c0-0.8,0.1-1.6,0.2-2.5c7.4,0.9,11.1,1.4,18.5,2.4
		C449.9,9.5,453.7,10,459.8,10.7z"/>
	<path class="st10" d="M524.7,45.6c-1.1,12.1-2.2,24.2-3.4,36.3c-8.1-1.9-14.1-9.2-14.1-17.9C507.3,54.2,515,46.1,524.7,45.6z"/>
	<path class="st10" d="M544.1,64c0,10-7.9,18.1-17.8,18.4c1.8-11.9,3.7-23.9,5.5-35.8C539,49.2,544.1,56,544.1,64z"/>
	<linearGradient id="SVGID_9_" gradientUnits="userSpaceOnUse" x1="520.0503" y1="101.1848" x2="520.0503" y2="94.7449">
		<stop  offset="0" style="stop-color:#8CC639"/>
		<stop  offset="1" style="stop-color:#C6DE52"/>
	</linearGradient>
	<path class="st11" d="M520.5,97.2c0,1.4-0.3,2.8-1,4c0.2-2.1,0.4-4.3,0.6-6.4C520.4,95.5,520.5,96.3,520.5,97.2z"/>
	<path class="st10" d="M520.2,94.7c-0.2,2.1-0.4,4.3-0.6,6.4c0,0,0,0,0,0c-1.5,2.9-4.4,4.8-7.9,4.8c-4.9,0-8.9-4-8.9-8.8
		c0-4.9,4-8.9,8.9-8.9C515.7,88.3,519.1,91,520.2,94.7z"/>
	<path class="st10" d="M472.1,102.9c2.9-2.4,6.4-3.9,10.4-4.2c-0.6,1.7-1.2,3.4-1.8,5.1C477.4,103.5,474.7,103.2,472.1,102.9z"/>
	<path class="st10" d="M498.9,105.9c-1.3-0.1-2.6-0.2-4.1-0.4c0.1-1.1,0.2-2.2,0.3-3.3C496.5,103.3,497.8,104.5,498.9,105.9z"/>
	<path class="st10" d="M611.2,93.5c0,4.3-2.4,8-6,9.8c-4.5-1-9.1-1.9-13.6-2.8c-1.6-1.9-2.5-4.3-2.5-7c0-6.1,5-11.1,11.1-11.1
		S611.2,87.4,611.2,93.5z"/>
	<path class="st10" d="M638.2,101.9c-8.3-6-13.7-15.8-13.7-26.9c0-8.4,3.1-16,8.3-21.9C634.7,69.4,636.5,85.7,638.2,101.9z"/>
	<path class="st10" d="M553.9,21.6c2.1,0.3,4.5,0.7,7.1,1.2c-1.7,9.9-3.4,19.8-5.1,29.8c-3.2-5-5.1-10.9-5.1-17.2
		C550.8,30.4,551.9,25.7,553.9,21.6z"/>
	<path class="st10" d="M614.1,35.3c0,17.5-14.2,31.7-31.7,31.7c-1.9,0-3.7-0.2-5.4-0.5c9.3-12,18.6-23.9,28.2-35.8
		c3.4,0.7,6.2,1.3,8.8,1.9C614.1,33.5,614.1,34.4,614.1,35.3z"/>
	<path class="st10" d="M622.2,126c-2,0-4.2,0.1-6.7,0.1c-0.3-5.1-0.4-8.6-0.6-12.4C619,116.3,621.9,120.8,622.2,126z"/>
	<path class="st10" d="M640.5,125.9c-1.4,0-2.6,0-3.8,0c1.2-0.6,2.4-1.1,3.7-1.5C640.4,124.9,640.5,125.4,640.5,125.9z"/>
	<path class="st10" d="M577.3,85.4c0,7.3-5.9,13.3-13.3,13.3c-3.4,0-6.4-1.3-8.8-3.3c5.2-7.1,10.5-14.1,15.9-21.2
		C574.8,76.5,577.3,80.7,577.3,85.4z"/>
	<path class="st10" d="M490.7,67.7c0.8,0,1.7,0.1,2.4,0.2c-2.8,8-5.6,16.1-8.4,24.1c-4.1-2.1-7-6.5-7-11.5
		C477.8,73.5,483.6,67.7,490.7,67.7z"/>
	<path class="st10" d="M503.6,80.6c0,5.3-3.2,9.9-7.8,11.8c0.6-7.6,1.1-15.2,1.7-22.8C501.1,71.9,503.6,76,503.6,80.6z"/>
</g>
</svg>
