<?xml version="1.0" encoding="utf-8"?>
<!-- Generator: Adobe Illustrator 26.3.1, SVG Export Plug-In . SVG Version: 6.00 Build 0)  -->
<svg version="1.1" id="Camada_1" xmlns="http://www.w3.org/2000/svg" xmlns:xlink="http://www.w3.org/1999/xlink" x="0px" y="0px"
	 viewBox="0 0 24 24" style="enable-background:new 0 0 24 24;" xml:space="preserve">
<style type="text/css">
	.st0{fill-rule:evenodd;clip-rule:evenodd;fill:#B0263D;}
	.st1{fill:#B0263D;}
</style>
<g>
	<path class="st0" d="M12,1.4C6.1,1.4,1.2,6.3,1.2,12.2c0,4.8,3.1,8.8,7.4,10.2c0.5,0.1,0.7-0.2,0.7-0.5c0-0.3,0-1.1,0-2
		c-3,0.7-3.6-1.3-3.6-1.3C5.2,17.4,4.5,17,4.5,17c-1-0.7,0.1-0.7,0.1-0.7c1.1,0.1,1.6,1.1,1.6,1.1c1,1.6,2.5,1.2,3.1,0.9
		c0.1-0.7,0.4-1.2,0.7-1.4c-2.4-0.3-4.9-1.2-4.9-5.3c0-1.2,0.4-2.1,1.1-2.9C6.1,8.5,5.8,7.4,6.3,5.9c0,0,0.9-0.3,3,1.1
		c0.9-0.2,1.8-0.4,2.7-0.4c0.9,0,1.8,0.1,2.7,0.4c2.1-1.4,3-1.1,3-1.1c0.6,1.5,0.2,2.6,0.1,2.8c0.7,0.8,1.1,1.7,1.1,2.9
		c0,4.1-2.5,5-4.9,5.3c0.4,0.3,0.7,1,0.7,2c0,1.4,0,2.6,0,3c0,0.3,0.2,0.6,0.7,0.5c4.3-1.4,7.3-5.5,7.3-10.2
		C22.8,6.3,17.9,1.4,12,1.4z"/>
	<path class="st1" d="M5.3,16.9c0,0.1-0.1,0.1-0.2,0c-0.1,0-0.1-0.1-0.1-0.2c0-0.1,0.1-0.1,0.2,0C5.3,16.8,5.3,16.8,5.3,16.9
		L5.3,16.9z"/>
	<path class="st1" d="M5.8,17.4c-0.1,0-0.2,0-0.2,0c-0.1-0.1-0.1-0.2,0-0.2c0.1,0,0.1,0,0.2,0.1C5.8,17.2,5.8,17.3,5.8,17.4
		L5.8,17.4z"/>
	<path class="st1" d="M6.2,18c-0.1,0-0.2,0-0.2-0.1c-0.1-0.1-0.1-0.2,0-0.3c0.1,0,0.2,0,0.2,0.1C6.2,17.8,6.2,17.9,6.2,18L6.2,18z"
		/>
	<path class="st1" d="M6.8,18.6c-0.1,0.1-0.2,0-0.3,0c-0.1-0.1-0.1-0.2-0.1-0.3c0.1-0.1,0.2,0,0.3,0C6.8,18.4,6.8,18.5,6.8,18.6
		L6.8,18.6z"/>
	<path class="st1" d="M7.6,18.9c0,0.1-0.1,0.1-0.3,0.1c-0.1,0-0.2-0.1-0.2-0.2c0-0.1,0.1-0.1,0.3-0.1C7.5,18.7,7.6,18.8,7.6,18.9
		L7.6,18.9z"/>
	<path class="st1" d="M8.4,19c0,0.1-0.1,0.2-0.2,0.2C8.1,19.2,8,19.1,8,19c0-0.1,0.1-0.2,0.2-0.2S8.4,18.9,8.4,19L8.4,19z"/>
	<path class="st1" d="M9.3,18.9c0,0.1-0.1,0.2-0.2,0.2c-0.1,0-0.2,0-0.3-0.1c0-0.1,0.1-0.2,0.2-0.2C9.1,18.7,9.2,18.8,9.3,18.9
		L9.3,18.9z"/>
</g>
</svg>
