<?xml version="1.0" encoding="utf-8"?>
<!-- Generator: Adobe Illustrator 26.3.1, SVG Export Plug-In . SVG Version: 6.00 Build 0)  -->
<svg version="1.1" id="Camada_1" xmlns="http://www.w3.org/2000/svg" xmlns:xlink="http://www.w3.org/1999/xlink" x="0px" y="0px"
	 viewBox="0 0 24 24" style="enable-background:new 0 0 24 24;" xml:space="preserve">
<style type="text/css">
	.st0{fill:#22A650;}
</style>
<g>
	<g>
		<g>
			<path class="st0" d="M6.6,1.9C5.7,1.5,4.8,1.5,4,1.9l9.6,8.9l3.2-3.2L6.6,1.9z"/>
		</g>
	</g>
	<g>
		<g>
			<path class="st0" d="M3,2.9C2.8,3.2,2.6,3.7,2.6,4.1v16c0,0.5,0.1,0.9,0.3,1.3l9.7-9.7L3,2.9z"/>
		</g>
	</g>
	<g>
		<g>
			<path class="st0" d="M21.1,9.9L18,8.2l-3.5,3.5l4.2,3.9l2.3-1.3c0.8-0.5,1.3-1.3,1.3-2.2C22.4,11.2,21.9,10.4,21.1,9.9z"/>
		</g>
	</g>
	<g>
		<g>
			<path class="st0" d="M13.6,12.6l-9.7,9.7c0.4,0.2,0.9,0.4,1.3,0.4c0.4,0,0.9-0.1,1.3-0.3l11-6.1L13.6,12.6z"/>
		</g>
	</g>
</g>
</svg>
